#Comment line ignore any data following # character 
#Hierarchical Translation and Rotation (.htr) file 
[Header]	
#Header keywords are followed by a single value 
FileType HTR		#Single word string
DataType HTRS		#Translation followed by rotation and scale data
FileVersion 1		#integer
NumSegments 84		#integer
NumFrames 2		#integer
DataFrameRate 30		#integer, data frame rate in this file
EulerRotationOrder ZYX
CalibrationUnits mm
RotationUnits Degrees
GlobalAxisofGravity Y
BoneLengthAxis Y
ScaleFactor 1.00
[SegmentNames&Hierarchy]
#CHILD	PARENT
MASTER GLOBAL
root MASTER
chest root
L_mid_tent01 root
R_mid_tent01 root
spine01 root
Bip01_Neck chest
L_humerus chest
R_humerus chest
weapon_bone chest
Bip01_Head Bip01_Neck
eye_left_bone Bip01_Head
eye_right_bone Bip01_Head
L_forearm L_humerus
L_front_hand L_forearm
L_weapon_bone L_forearm
L_front_hand01_01 L_front_hand
L_front_hand02_01 L_front_hand
L_front_hand03_01 L_front_hand
L_front_hand01_02 L_front_hand01_01
L_front_hand02_02 L_front_hand02_01
L_front_hand03_02 L_front_hand03_01
R_forearm R_humerus
R_front_hand R_forearm
R_weapon_bone R_forearm
R_front_hand01_01 R_front_hand
R_front_hand02_01 R_front_hand
R_front_hand03_01 R_front_hand
R_front_hand01_02 R_front_hand01_01
R_front_hand02_02 R_front_hand02_01
R_front_hand03_02 R_front_hand03_01
null_rope01_connect L_mid_tent01
Rope1_Seg01 null_rope01_connect
Rope1_Seg02 Rope1_Seg01
Rope1_Seg03 Rope1_Seg02
Rope1_Seg04 Rope1_Seg03
Rope1_Seg05 Rope1_Seg04
Rope1_Seg06 Rope1_Seg05
Rope1_Seg07 Rope1_Seg06
Rope1_Seg09 Rope1_Seg07
L_mid_hand01 Rope1_Seg09
L_mid_hand02 Rope1_Seg09
L_mid_hand03 Rope1_Seg09
null_rope02_connect R_mid_tent01
Rope2_Seg01 null_rope02_connect
Rope2_Seg02 Rope2_Seg01
Rope2_Seg03 Rope2_Seg02
Rope2_Seg04 Rope2_Seg03
Rope2_Seg05 Rope2_Seg04
Rope2_Seg06 Rope2_Seg05
Rope2_Seg07 Rope2_Seg06
Rope2_Seg09 Rope2_Seg07
R_mid_hand01 Rope2_Seg09
R_mid_hand02 Rope2_Seg09
R_mid_hand03 Rope2_Seg09
spine02 spine01
spine03 spine02
pelvis spine03
null_rope03_connect pelvis
null_rope04_connect pelvis
Rope3_Seg01 null_rope03_connect
Rope3_Seg02 Rope3_Seg01
Rope3_Seg03 Rope3_Seg02
Rope3_Seg04 Rope3_Seg03
Rope3_Seg05 Rope3_Seg04
Rope3_Seg06 Rope3_Seg05
Rope3_Seg07 Rope3_Seg06
Rope3_Seg08 Rope3_Seg07
Rope3_Seg09 Rope3_Seg08
R_rear_hand01 Rope3_Seg09
R_rear_hand02 Rope3_Seg09
R_rear_hand03 Rope3_Seg09
Rope4_Seg01 null_rope04_connect
Rope4_Seg02 Rope4_Seg01
Rope4_Seg03 Rope4_Seg02
Rope4_Seg04 Rope4_Seg03
Rope4_Seg05 Rope4_Seg04
Rope4_Seg06 Rope4_Seg05
Rope4_Seg07 Rope4_Seg06
Rope4_Seg08 Rope4_Seg07
Rope4_Seg09 Rope4_Seg08
L_rear_hand01 Rope4_Seg09
L_rear_hand02 Rope4_Seg09
L_rear_hand03 Rope4_Seg09
[BasePosition]
#SegmentName Tx, Ty, Tz, Rx, Ry, Rz, BoneLength
MASTER 0.000000 0.000000 0.000000 -90.000000 0.000000 0.000000 10.000000 
root 0.000000 0.000000 0.000000 0.000000 0.000000 0.000000 10.000000 
chest 0.000000 0.000000 0.000000 0.000000 0.000000 0.000000 10.000000 
L_mid_tent01 0.000000 0.000000 0.000000 0.000000 0.000000 0.000000 10.000000 
R_mid_tent01 0.000000 0.000000 0.000000 0.000000 0.000000 0.000000 10.000000 
spine01 0.000000 0.000000 0.000000 0.000000 0.000000 0.000000 10.000000 
Bip01_Neck 0.000000 0.000000 0.000000 0.000000 0.000000 0.000000 10.000000 
L_humerus 0.000000 0.000000 0.000000 0.000000 0.000000 0.000000 10.000000 
R_humerus 0.000000 0.000000 0.000000 0.000000 0.000000 0.000000 10.000000 
weapon_bone 0.000000 0.000000 0.000000 0.000000 0.000000 0.000000 10.000000 
Bip01_Head 0.000000 0.000000 0.000000 0.000000 0.000000 0.000000 10.000000 
eye_left_bone 0.000000 0.000000 0.000000 0.000000 0.000000 0.000000 10.000000 
eye_right_bone 0.000000 0.000000 0.000000 0.000000 0.000000 0.000000 10.000000 
L_forearm 0.000000 0.000000 0.000000 0.000000 0.000000 0.000000 10.000000 
L_front_hand 0.000000 0.000000 0.000000 0.000000 0.000000 0.000000 10.000000 
L_weapon_bone 0.000000 0.000000 0.000000 0.000000 0.000000 0.000000 10.000000 
L_front_hand01_01 0.000000 0.000000 0.000000 0.000000 0.000000 0.000000 10.000000 
L_front_hand02_01 0.000000 0.000000 0.000000 0.000000 0.000000 0.000000 10.000000 
L_front_hand03_01 0.000000 0.000000 0.000000 0.000000 0.000000 0.000000 10.000000 
L_front_hand01_02 0.000000 0.000000 0.000000 0.000000 0.000000 0.000000 10.000000 
L_front_hand02_02 0.000000 0.000000 0.000000 0.000000 0.000000 0.000000 10.000000 
L_front_hand03_02 0.000000 0.000000 0.000000 0.000000 0.000000 0.000000 10.000000 
R_forearm 0.000000 0.000000 0.000000 0.000000 0.000000 0.000000 10.000000 
R_front_hand 0.000000 0.000000 0.000000 0.000000 0.000000 0.000000 10.000000 
R_weapon_bone 0.000000 0.000000 0.000000 0.000000 0.000000 0.000000 10.000000 
R_front_hand01_01 0.000000 0.000000 0.000000 0.000000 0.000000 0.000000 10.000000 
R_front_hand02_01 0.000000 0.000000 0.000000 0.000000 0.000000 0.000000 10.000000 
R_front_hand03_01 0.000000 0.000000 0.000000 0.000000 0.000000 0.000000 10.000000 
R_front_hand01_02 0.000000 0.000000 0.000000 0.000000 0.000000 0.000000 10.000000 
R_front_hand02_02 0.000000 0.000000 0.000000 0.000000 0.000000 0.000000 10.000000 
R_front_hand03_02 0.000000 0.000000 0.000000 0.000000 0.000000 0.000000 10.000000 
null_rope01_connect 0.000000 0.000000 0.000000 0.000000 0.000000 0.000000 10.000000 
Rope1_Seg01 0.000000 0.000000 0.000000 0.000000 0.000000 0.000000 10.000000 
Rope1_Seg02 0.000000 0.000000 0.000000 0.000000 0.000000 0.000000 10.000000 
Rope1_Seg03 0.000000 0.000000 0.000000 0.000000 0.000000 0.000000 10.000000 
Rope1_Seg04 0.000000 0.000000 0.000000 0.000000 0.000000 0.000000 10.000000 
Rope1_Seg05 0.000000 0.000000 0.000000 0.000000 0.000000 0.000000 10.000000 
Rope1_Seg06 0.000000 0.000000 0.000000 0.000000 0.000000 0.000000 10.000000 
Rope1_Seg07 0.000000 0.000000 0.000000 0.000000 0.000000 0.000000 10.000000 
Rope1_Seg09 0.000000 0.000000 0.000000 0.000000 0.000000 0.000000 10.000000 
L_mid_hand01 0.000000 0.000000 0.000000 0.000000 0.000000 0.000000 10.000000 
L_mid_hand02 0.000000 0.000000 0.000000 0.000000 0.000000 0.000000 10.000000 
L_mid_hand03 0.000000 0.000000 0.000000 0.000000 0.000000 0.000000 10.000000 
null_rope02_connect 0.000000 0.000000 0.000000 0.000000 0.000000 0.000000 10.000000 
Rope2_Seg01 0.000000 0.000000 0.000000 0.000000 0.000000 0.000000 10.000000 
Rope2_Seg02 0.000000 0.000000 0.000000 0.000000 0.000000 0.000000 10.000000 
Rope2_Seg03 0.000000 0.000000 0.000000 0.000000 0.000000 0.000000 10.000000 
Rope2_Seg04 0.000000 0.000000 0.000000 0.000000 0.000000 0.000000 10.000000 
Rope2_Seg05 0.000000 0.000000 0.000000 0.000000 0.000000 0.000000 10.000000 
Rope2_Seg06 0.000000 0.000000 0.000000 0.000000 0.000000 0.000000 10.000000 
Rope2_Seg07 0.000000 0.000000 0.000000 0.000000 0.000000 0.000000 10.000000 
Rope2_Seg09 0.000000 0.000000 0.000000 0.000000 0.000000 0.000000 10.000000 
R_mid_hand01 0.000000 0.000000 0.000000 0.000000 0.000000 0.000000 10.000000 
R_mid_hand02 0.000000 0.000000 0.000000 0.000000 0.000000 0.000000 10.000000 
R_mid_hand03 0.000000 0.000000 0.000000 0.000000 0.000000 0.000000 10.000000 
spine02 0.000000 0.000000 0.000000 0.000000 0.000000 0.000000 10.000000 
spine03 0.000000 0.000000 0.000000 0.000000 0.000000 0.000000 10.000000 
pelvis 0.000000 0.000000 0.000000 0.000000 0.000000 0.000000 10.000000 
null_rope03_connect 0.000000 0.000000 0.000000 0.000000 0.000000 0.000000 10.000000 
null_rope04_connect 0.000000 0.000000 0.000000 0.000000 0.000000 0.000000 10.000000 
Rope3_Seg01 0.000000 0.000000 0.000000 0.000000 0.000000 0.000000 10.000000 
Rope3_Seg02 0.000000 0.000000 0.000000 0.000000 0.000000 0.000000 10.000000 
Rope3_Seg03 0.000000 0.000000 0.000000 0.000000 0.000000 0.000000 10.000000 
Rope3_Seg04 0.000000 0.000000 0.000000 0.000000 0.000000 0.000000 10.000000 
Rope3_Seg05 0.000000 0.000000 0.000000 0.000000 0.000000 0.000000 10.000000 
Rope3_Seg06 0.000000 0.000000 0.000000 0.000000 0.000000 0.000000 10.000000 
Rope3_Seg07 0.000000 0.000000 0.000000 0.000000 0.000000 0.000000 10.000000 
Rope3_Seg08 0.000000 0.000000 0.000000 0.000000 0.000000 0.000000 10.000000 
Rope3_Seg09 0.000000 0.000000 0.000000 0.000000 0.000000 0.000000 10.000000 
R_rear_hand01 0.000000 0.000000 0.000000 0.000000 0.000000 0.000000 10.000000 
R_rear_hand02 0.000000 0.000000 0.000000 0.000000 0.000000 0.000000 10.000000 
R_rear_hand03 0.000000 0.000000 0.000000 0.000000 0.000000 0.000000 10.000000 
Rope4_Seg01 0.000000 0.000000 0.000000 0.000000 0.000000 0.000000 10.000000 
Rope4_Seg02 0.000000 0.000000 0.000000 0.000000 0.000000 0.000000 10.000000 
Rope4_Seg03 0.000000 0.000000 0.000000 0.000000 0.000000 0.000000 10.000000 
Rope4_Seg04 0.000000 0.000000 0.000000 0.000000 0.000000 0.000000 10.000000 
Rope4_Seg05 0.000000 0.000000 0.000000 0.000000 0.000000 0.000000 10.000000 
Rope4_Seg06 0.000000 0.000000 0.000000 0.000000 0.000000 0.000000 10.000000 
Rope4_Seg07 0.000000 0.000000 0.000000 0.000000 0.000000 0.000000 10.000000 
Rope4_Seg08 0.000000 0.000000 0.000000 0.000000 0.000000 0.000000 10.000000 
Rope4_Seg09 0.000000 0.000000 0.000000 0.000000 0.000000 0.000000 10.000000 
L_rear_hand01 0.000000 0.000000 0.000000 0.000000 0.000000 0.000000 10.000000 
L_rear_hand02 0.000000 0.000000 0.000000 0.000000 0.000000 0.000000 10.000000 
L_rear_hand03 0.000000 0.000000 0.000000 0.000000 0.000000 0.000000 10.000000 
#Beginning of Data. Separated by tabs
#Fr	Tx	Ty	Tz	Rx	Ry	Rz	SF
[MASTER]
9 0.000000 0.000000 0.000000 0.001660 0.001660 0.001660 0.000000
10 0.000000 0.000000 0.000000 0.001660 0.001660 0.001660 0.000000
[root]
9 -35.658840 -45.309460 1496.974121 -77.113701 -45.745224 -109.942780 1498.084106
10 -37.283722 -49.381336 1501.101196 -80.531403 -47.804085 -106.332237 1502.375854
[chest]
9 -84.512650 -34.090519 0.000000 2.842448 3.861116 164.827744 91.129311
10 -84.512650 -34.090519 0.000000 2.006776 1.164797 164.777557 91.129311
[L_mid_tent01]
9 27.299141 22.179106 -249.918716 3.556249 2.918203 80.894989 252.381699
10 27.299145 22.179106 -249.918716 3.209411 0.638773 80.380188 252.381699
[R_mid_tent01]
9 23.228794 24.509907 226.238495 160.856430 -19.623034 85.766426 228.744751
10 23.228794 24.509907 226.238495 161.983887 -14.655670 83.312782 228.744751
[spine01]
9 -0.361383 -0.195265 0.000000 0.002062 0.001122 32.879829 0.410763
10 -0.361383 -0.195265 0.000000 0.002062 0.001122 32.879829 0.410763
[Bip01_Neck]
9 165.484543 71.581718 0.000119 176.643677 -1.657967 43.431911 180.302734
10 165.484543 71.581718 0.000119 176.643677 -1.657967 43.431911 180.302734
[L_humerus]
9 -13.983130 -135.272980 -120.471481 165.931992 1.516087 -58.941330 181.680161
10 -13.983130 -135.272980 -120.471481 164.021774 -3.095828 -58.519394 181.680161
[R_humerus]
9 -13.983309 -135.273102 125.287651 176.973434 -41.496357 -79.568649 184.909012
10 -13.983309 -135.273102 125.287651 179.224747 -32.383240 -81.761459 184.909012
[weapon_bone]
9 235.964890 -300.705902 0.000000 0.000000 -89.951546 -128.212341 382.234833
10 235.964890 -300.705902 0.000000 0.000000 -89.951546 -128.212341 382.234833
[Bip01_Head]
9 213.664063 185.103516 19.678305 31.521019 1.980060 -43.898716 283.377625
10 213.637772 185.176849 18.730679 31.678503 1.335902 -43.898937 283.341492
[eye_left_bone]
9 -24.626970 125.451866 -64.772606 0.000000 -90.000000 -99.840431 143.318359
10 -24.626970 125.451866 -64.772606 0.000000 -90.000000 -99.840431 143.318359
[eye_right_bone]
9 -24.626970 125.451866 64.327362 0.000000 -89.965736 80.156380 143.117676
10 -24.626970 125.451866 64.327362 0.000000 -89.965736 80.156380 143.117676
[L_forearm]
9 322.776093 0.000000 -0.000119 0.000396 -0.002314 -109.419968 322.776093
10 322.776093 0.000000 -0.000119 0.000396 -0.002314 -109.419975 322.776093
[L_front_hand]
9 241.149185 -0.042021 -3.300071 -178.667953 -1.835447 -27.422344 241.171753
10 241.149185 -0.042021 -3.300071 -178.667953 -1.835447 -27.422350 241.171753
[L_weapon_bone]
9 156.183838 0.000000 0.000000 0.000014 0.000007 0.000001 156.183838
10 156.183838 0.000000 0.000000 0.000014 0.000007 0.000001 156.183838
[L_front_hand01_01]
9 86.095154 20.947098 -0.655860 -0.306535 -0.513312 68.646957 88.609184
10 86.095154 20.947098 -0.655860 -0.291918 -0.522545 67.227623 88.609184
[L_front_hand02_01]
9 86.935165 -11.437475 24.513514 145.004044 -56.473930 -50.323570 91.046425
10 86.935165 -11.437475 24.513514 143.299133 -55.645813 -48.269917 91.046425
[L_front_hand03_01]
9 86.637497 -14.123976 -20.424902 -145.151367 54.687611 -52.198399 90.126129
10 86.637497 -14.123976 -20.424902 -143.556335 53.862476 -50.232788 90.126129
[L_front_hand01_02]
9 71.020905 -0.000179 0.000030 0.000316 -0.002326 -105.490036 71.020905
10 71.020905 -0.000179 0.000030 0.000316 -0.002326 -105.466431 71.020905
[L_front_hand02_02]
9 71.020927 -0.000119 0.000060 0.000316 -0.002326 -105.490036 71.020927
10 71.020927 -0.000119 0.000060 0.000316 -0.002326 -105.466431 71.020927
[L_front_hand03_02]
9 71.020905 -0.000060 0.000060 0.000316 -0.002326 -105.490036 71.020905
10 71.020905 -0.000060 0.000060 0.000316 -0.002326 -105.466431 71.020905
[R_forearm]
9 322.776428 -0.000060 0.000030 0.202103 0.065158 -108.062805 322.776428
10 322.776428 -0.000060 0.000030 0.202103 0.065158 -108.062805 322.776428
[R_front_hand]
9 238.847015 -0.006795 2.210259 -2.635298 -10.645461 -26.312506 238.857239
10 238.847015 -0.006795 2.210259 -2.635298 -10.645461 -26.312506 238.857239
[R_weapon_bone]
9 155.664093 0.002503 -0.000030 0.003487 0.001180 -90.988930 155.664078
10 155.664093 0.002503 -0.000030 0.003487 0.001180 -90.988930 155.664078
[R_front_hand01_01]
9 87.624611 14.231146 22.918642 -145.613235 -56.747219 51.157963 91.683487
10 87.624611 14.231146 22.918642 -143.671631 -55.829556 48.823868 91.683487
[R_front_hand02_01]
9 89.356956 14.367283 -19.491137 146.110458 55.128284 53.601921 92.579636
10 89.356956 14.367283 -19.491137 144.272369 54.223438 51.351048 92.579636
[R_front_hand03_01]
9 87.286232 -22.307278 -0.143439 0.113738 -0.439575 -69.369316 90.091743
10 87.286232 -22.307278 -0.143439 0.102142 -0.441771 -67.781387 90.091743
[R_front_hand01_02]
9 71.020905 0.000060 0.000119 0.002323 -0.000334 106.381706 71.020905
10 71.020905 0.000060 0.000119 0.002323 -0.000334 106.381714 71.020905
[R_front_hand02_02]
9 71.020844 -0.000030 -0.000119 0.002323 -0.000334 106.381706 71.020836
10 71.020844 -0.000030 -0.000119 0.002323 -0.000334 106.381714 71.020836
[R_front_hand03_02]
9 71.020905 0.000000 0.000030 0.002323 -0.000334 106.381706 71.020905
10 71.020905 0.000000 0.000030 0.002323 -0.000334 106.381714 71.020905
[null_rope01_connect]
9 328.732483 0.000000 -0.000238 -55.365154 -71.818413 111.648399 328.732483
10 328.732483 0.000000 -0.000238 -52.602329 -75.553467 111.017189 328.732483
[Rope1_Seg01]
9 -0.000026 -0.000052 0.000104 -31.517328 22.491438 -88.557724 0.000119
10 -0.000024 -0.000049 0.000098 -24.372318 18.130070 -86.389633 0.000112
[Rope1_Seg02]
9 139.999863 -0.000179 0.000000 3.088850 2.482136 -4.931115 139.999863
10 139.999863 -0.000179 0.000000 3.646259 -0.313834 -2.838994 139.999863
[Rope1_Seg03]
9 139.999924 0.000060 -0.000060 13.751763 2.421293 -8.779142 139.999924
10 139.999924 0.000060 -0.000060 6.268060 -0.602783 -4.257349 139.999924
[Rope1_Seg04]
9 139.999924 -0.000060 -0.000119 42.040230 1.880568 -11.075746 139.999924
10 139.999924 -0.000060 -0.000119 19.082561 -1.655589 -9.912842 139.999924
[Rope1_Seg05]
9 139.999832 0.000119 -0.000060 -82.488419 11.036625 -0.459817 139.999832
10 139.999832 0.000119 -0.000060 -6.965183 -0.564627 5.934961 139.999832
[Rope1_Seg06]
9 139.999954 0.000119 -0.000060 -19.451614 1.120419 4.357174 139.999954
10 139.999954 0.000119 -0.000060 -4.812241 -0.050323 4.301429 139.999954
[Rope1_Seg07]
9 139.999985 0.000060 0.000000 -7.075656 0.049227 2.372294 139.999985
10 139.999985 0.000060 0.000000 -1.090995 -0.360648 1.429563 139.999985
[Rope1_Seg09]
9 121.602913 0.000119 -0.000089 -89.793175 -1.359789 0.847147 121.602913
10 121.602913 0.000119 -0.000089 -89.793175 -1.359789 0.847147 121.602913
[L_mid_hand01]
9 103.859421 1.038730 8.195221 109.056190 -40.604698 -13.201404 104.187431
10 103.859421 1.038730 8.195221 109.301483 -41.408253 -13.576799 104.187431
[L_mid_hand02]
9 105.572853 -4.139662 -10.864139 -146.713593 31.476528 -37.902313 106.211075
10 105.572853 -4.139662 -10.864139 -147.153671 31.943630 -38.737034 106.211075
[L_mid_hand03]
9 104.641464 17.579376 -3.913581 -14.267232 12.322316 43.898403 106.179977
10 104.641464 17.579376 -3.913581 -14.087292 12.528420 44.741467 106.179977
[null_rope02_connect]
9 328.732849 0.000179 -0.000119 -107.012688 72.868233 16.314888 328.732849
10 328.732849 0.000179 -0.000119 -86.807808 77.265167 34.791786 328.732849
[Rope2_Seg01]
9 0.000003 0.000106 0.000000 95.169960 8.354857 -83.948891 0.000106
10 -0.000006 0.000105 0.000000 99.286339 11.625697 -92.992996 0.000105
[Rope2_Seg02]
9 139.999741 -0.000060 -0.000119 17.208946 -17.174904 -12.728997 139.999756
10 139.999741 -0.000060 -0.000119 5.652812 -12.898894 -2.935236 139.999756
[Rope2_Seg03]
9 140.000107 0.000030 0.000000 6.931274 -14.022187 -6.165082 140.000107
10 140.000107 0.000030 0.000000 3.263294 -11.279688 -2.269693 140.000107
[Rope2_Seg04]
9 139.999802 0.000000 -0.000060 2.734659 -8.986796 -3.260518 139.999802
10 139.999802 0.000000 -0.000060 2.716190 -12.032118 -3.846920 139.999802
[Rope2_Seg05]
9 139.999985 -0.000060 0.000119 -0.231082 -0.619576 0.967347 139.999985
10 139.999985 -0.000060 0.000119 -0.272581 -1.057433 1.844131 139.999985
[Rope2_Seg06]
9 139.999893 -0.000030 -0.000119 -2.646209 7.686310 6.401991 139.999893
10 139.999893 -0.000030 -0.000119 -1.818786 9.810205 8.940125 139.999893
[Rope2_Seg07]
9 139.999893 0.000060 -0.000060 -8.210009 18.176706 17.316147 139.999893
10 139.999893 0.000060 -0.000060 -4.519235 15.270254 14.666636 139.999893
[Rope2_Seg09]
9 121.338966 0.000089 -0.000060 33.793236 -1.359788 -0.847141 121.338966
10 121.338966 0.000089 -0.000060 33.793236 -1.359788 -0.847141 121.338966
[R_mid_hand01]
9 104.680779 11.144459 -10.335981 -33.085686 36.191681 44.913227 105.778534
10 104.680779 11.144459 -10.335981 -34.826851 34.540035 41.908733 105.778534
[R_mid_hand02]
9 104.070427 2.443552 8.231699 67.611252 -49.370300 17.897308 104.424065
10 104.070427 2.443552 8.231699 68.824310 -46.622631 16.260359 104.424065
[R_mid_hand03]
9 106.028137 -11.221827 -5.996406 -171.571182 13.427422 -54.737041 106.788818
10 106.028137 -11.221827 -5.996406 -170.883774 12.973572 -51.735531 106.788818
[spine02]
9 129.756927 0.001550 0.000119 0.360061 -4.044797 -12.915058 129.756927
10 129.756927 0.001550 0.000119 0.360061 -4.044797 -12.915058 129.756927
[spine03]
9 78.614067 0.081635 -4.899009 1.896495 3.831288 16.473045 78.766602
10 78.614067 0.081635 -4.899009 1.896495 3.831288 16.473045 78.766602
[pelvis]
9 169.435242 0.051022 0.000000 -0.060465 -0.180225 14.087930 169.435257
10 169.435242 0.051022 0.000000 -0.060465 -0.180225 14.087930 169.435257
[null_rope03_connect]
9 -1.257226 -2.466202 137.391083 -45.005833 -75.848366 131.937012 137.418976
10 -1.257226 -2.466202 137.391083 -49.736427 -78.614883 138.037567 137.418976
[null_rope04_connect]
9 -1.259640 -2.480268 -137.844437 -45.005833 -75.848366 131.937012 137.872513
10 -1.259640 -2.480268 -137.844437 -49.736427 -78.614883 138.037567 137.872513
[Rope3_Seg01]
9 0.000010 0.000038 -0.000114 -130.454834 1.311267 -91.959206 0.000121
10 0.000010 0.000038 -0.000114 -131.656158 6.078159 -91.984306 0.000121
[Rope3_Seg02]
9 139.999924 -0.000119 0.000060 -1.159642 -5.864510 0.724700 139.999924
10 139.999924 -0.000119 0.000060 -1.052732 -0.181292 5.955923 139.999924
[Rope3_Seg03]
9 139.999924 -0.000119 0.000119 -1.614336 -7.341368 3.163671 139.999924
10 139.999924 -0.000119 0.000119 -1.680267 -0.031697 7.178836 139.999924
[Rope3_Seg04]
9 139.999924 0.000119 0.000000 -0.715345 -9.022948 -1.350869 139.999924
10 139.999924 0.000119 0.000000 -3.522841 0.699596 11.339831 139.999924
[Rope3_Seg05]
9 139.999924 -0.000238 0.000060 1.311961 -8.944283 -18.079227 139.999924
10 139.999924 -0.000238 0.000060 0.327132 -2.066622 -3.501964 139.999924
[Rope3_Seg06]
9 139.999893 -0.000119 -0.000060 1.052054 -7.645724 -12.535093 139.999893
10 139.999893 -0.000119 -0.000060 3.980393 -5.045124 -20.636101 139.999893
[Rope3_Seg07]
9 139.999771 0.000060 -0.000119 0.630293 -4.124805 -6.438263 139.999771
10 139.999771 0.000060 -0.000119 1.499505 -5.311497 -15.603489 139.999771
[Rope3_Seg08]
9 139.999985 -0.000060 0.000000 0.518818 -0.759708 -1.164094 139.999985
10 139.999985 -0.000060 0.000000 0.407125 -3.875273 -10.632039 139.999985
[Rope3_Seg09]
9 90.185997 -0.000179 -0.000060 89.793228 -1.359877 -0.847183 90.185997
10 90.185997 -0.000179 -0.000060 89.793228 -1.359877 -0.847183 90.185997
[R_rear_hand01]
9 103.366196 -6.073594 -10.757982 -166.818848 21.039259 -46.280426 104.101845
10 103.366196 -6.073594 -10.757982 -165.718872 20.328495 -43.170486 104.101845
[R_rear_hand02]
9 100.509819 12.039542 -7.992327 -28.339693 27.613865 43.697414 101.543350
10 100.509819 12.039542 -7.992327 -29.668055 26.160351 40.761948 101.543350
[R_rear_hand03]
9 101.539970 5.215704 5.435467 81.685280 -46.725750 9.939899 101.819031
10 101.539970 5.215704 5.435467 82.115250 -43.756126 9.334551 101.819031
[Rope4_Seg01]
9 0.000010 0.000026 -0.000104 50.092422 -10.617486 -107.593468 0.000107
10 0.000010 0.000024 -0.000098 48.424362 1.450663 -113.540260 0.000101
[Rope4_Seg02]
9 139.999985 0.000060 0.000119 -3.162636 0.938409 -16.857489 139.999985
10 139.999985 0.000060 0.000119 0.048773 8.784619 2.227743 139.999985
[Rope4_Seg03]
9 139.999924 0.000000 -0.000238 -1.854479 2.530363 -6.628088 139.999924
10 139.999924 0.000000 -0.000238 0.171467 5.570521 2.065002 139.999924
[Rope4_Seg04]
9 139.999985 0.000000 0.000119 -0.608788 -0.658083 -3.116044 139.999985
10 139.999985 0.000000 0.000119 0.104677 1.925154 0.537631 139.999985
[Rope4_Seg05]
9 139.999802 -0.000060 -0.000119 -0.411303 -6.472080 -5.321962 139.999802
10 139.999802 -0.000060 -0.000119 0.165984 -1.341723 -1.360472 139.999802
[Rope4_Seg06]
9 139.999924 0.000000 0.000060 -4.243191 -22.320841 -20.690321 139.999924
10 139.999924 0.000000 0.000060 0.404766 -6.310667 -4.881218 139.999924
[Rope4_Seg07]
9 139.999802 0.000000 0.000000 -76.043594 -24.185108 -33.302567 139.999802
10 139.999802 0.000000 0.000000 0.279472 -9.478317 -7.838799 139.999802
[Rope4_Seg08]
9 139.999924 0.000000 0.000119 -22.442190 5.589578 -5.793773 139.999924
10 139.999924 0.000000 0.000119 -2.287036 -12.775784 -10.964665 139.999924
[Rope4_Seg09]
9 90.185791 0.000060 0.000060 -135.617828 2.228885 0.850567 90.185791
10 90.185791 0.000060 0.000060 -135.617828 2.228885 0.850567 90.185791
[L_rear_hand01]
9 101.696655 -8.392275 -7.654577 -30.719042 -24.879360 141.681366 102.329041
10 101.696655 -8.392275 -7.654577 -29.575453 -26.270130 139.027267 102.329041
[L_rear_hand02]
9 102.726799 -1.568258 5.773216 82.428490 41.230476 171.131027 102.900848
10 102.726799 -1.568258 5.773216 82.088585 43.973633 170.624878 102.900848
[L_rear_hand03]
9 104.552910 9.721220 -10.420293 -164.822937 -19.676041 -139.457672 105.519653
10 104.552910 9.721220 -10.420293 -165.800003 -20.376877 -136.601624 105.519653
